<svg width="300" height="300" xmlns="http://www.w3.org/2000/svg">
 <!-- Created with Method Draw - http://github.com/duopixel/Method-Draw/ -->

 <g>
  <title>background</title>
  <rect fill="none" id="canvas_background" height="302" width="302" y="-1" x="-1"/>
  <g display="none" overflow="visible" y="0" x="0" height="100%" width="100%" id="canvasGrid">
   <rect fill="url(#gridpattern)" stroke-width="0" y="1" x="1" height="480" width="640"/>
  </g>
 </g>
 <g>
  <title>Layer 1</title>
  <g stroke="null" transform="matrix(0.1525884959852739,0,0,0.1525884959852739,0,0) " id="svg_5">
   <g stroke="null" id="svg_6">
    <g stroke="null" id="svg_7">
     <path fill="#0ac5a8" stroke="null" id="svg_8" d="m1149.90058,764.92625c-0.147,0.147 -0.293,0.293 -0.437,0.436c-0.144,0.144 -0.285,0.285 -0.423,0.423c0.304,-0.303 0.588,-0.587 0.86,-0.859z"/>
     <path fill="#0ac5a8" stroke="null" id="svg_9" d="m1153.17558,761.65025c-0.105,0.105 -0.217,0.217 -0.334,0.334s-0.24,0.24 -0.367,0.367c0.275,-0.274 0.499,-0.498 0.701,-0.701z"/>
     <path fill="#0ac5a8" stroke="null" id="svg_10" d="m1154.14358,760.68225c-0.016,0.016 -0.043,0.043 -0.081,0.081c0.088,-0.088 0.116,-0.116 0.081,-0.081z"/>
     <path fill="#0ac5a8" stroke="null" id="svg_11" d="m1147.91058,766.91625c-0.11,0.11 -0.214,0.214 -0.311,0.311c-0.097,0.097 -0.187,0.187 -0.269,0.269c0.196,-0.196 0.393,-0.394 0.58,-0.58z"/>
     <path fill="#0ac5a8" stroke="null" id="svg_12" d="m1198.57658,541.26925l0,8.251l-48.783,0c-3.762,-31.193 -16.097,-59.783 -34.586,-83.329l34.545,-34.545l5.836,5.836c18.875,18.875 47.498,-9.726 28.61,-28.61c-1.057,-1.057 -2.013,-2.013 -2.881,-2.881c-0.115,-0.115 -0.22,-0.22 -0.331,-0.331c-0.102,-0.102 -0.238,-0.238 -0.392,-0.392c0.065,0.065 0.132,0.132 0.189,0.189c-0.154,-0.154 -0.306,-0.306 -0.454,-0.454c-0.041,-0.041 -0.086,-0.086 -0.126,-0.126c-0.118,-0.118 -0.236,-0.236 -0.35,-0.35c-1.057,-1.057 -2.754,-2.754 -5.3,-5.3c-0.376,-0.376 -0.568,-0.568 -0.596,-0.596c-5.593,-5.593 -14.954,-14.954 -30.04,-30.04c-18.9,-18.9 -47.538,9.685 -28.61,28.61l5.836,5.836l-34.545,34.545c-23.546,-18.49 -52.137,-30.825 -83.329,-34.586l0,-48.783l8.251,0c26.733,0 26.761,-40.461 0,-40.461l-56.964,0c-26.733,0 -26.761,40.461 0,40.461l8.251,0l0,48.783c-31.193,3.762 -59.783,16.097 -83.329,34.586l-34.546,-34.545l5.836,-5.836c18.905,-18.901 -9.686,-47.533 -28.61,-28.61c-2.238,2.238 -4.03,4.03 -5.456,5.456c-4.168,4.168 -14.111,14.111 -34.825,34.825c-18.905,18.902 9.763,47.459 28.61,28.61l5.836,-5.836l34.545,34.545c-18.49,23.546 -30.825,52.137 -34.586,83.329l-48.784,0l0,-8.251c0,-26.733 -40.461,-26.761 -40.461,0l0,56.964c0,26.733 40.461,26.761 40.461,0l0,-8.251l48.783,0c3.762,31.193 16.097,59.783 34.586,83.329l-34.545,34.545l-5.836,-5.836c-18.901,-18.899 -47.539,9.685 -28.61,28.61c1.057,1.057 2.013,2.013 2.881,2.881c5.376,5.376 7.266,7.266 7.36,7.36c5.593,5.593 14.954,14.954 30.04,30.04c18.9,18.9 47.541,-9.682 28.61,-28.61l-5.836,-5.836l34.545,-34.545c23.546,18.49 52.136,30.825 83.329,34.586l0,48.783l-8.251,0c-26.733,0 -26.761,40.461 0,40.461l56.964,0c26.733,0 26.761,-40.461 0,-40.461l-8.251,0l0,-48.783c31.193,-3.762 59.783,-16.097 83.329,-34.586l34.545,34.545l-5.836,5.836c-18.905,18.902 9.763,47.457 28.61,28.61c1.073,-1.073 2.043,-2.043 2.921,-2.921c-0.137,0.137 0.071,-0.071 0.762,-0.762c0.268,-0.268 0.611,-0.611 1.038,-1.038c0.249,-0.249 0.519,-0.519 0.827,-0.827c0.867,-0.867 1.986,-1.986 3.378,-3.378c0.409,-0.409 0.843,-0.843 1.302,-1.302c5.591,-5.591 14.955,-14.955 30.052,-30.052c18.905,-18.901 -9.686,-47.533 -28.61,-28.61l-5.836,5.836l-34.545,-34.545c18.49,-23.546 30.825,-52.136 34.586,-83.329l48.783,0l0,8.251c0,26.733 40.461,26.761 40.461,0l0,-56.964c0.003,-26.734 -40.458,-26.761 -40.458,-0.001zm-251.967,41.443c-24.636,0 -44.607,-19.972 -44.607,-44.607s19.972,-44.607 44.607,-44.607s44.607,19.972 44.607,44.607s-19.971,44.607 -44.607,44.607zm72.856,50.975c-15.192,0 -27.507,-12.315 -27.507,-27.507s12.315,-27.507 27.507,-27.507s27.507,12.315 27.507,27.507c0,15.192 -12.315,27.507 -27.507,27.507z"/>
     <path fill="#0ac5a8" stroke="null" id="svg_13" d="m1148.25858,766.56825c0.273,-0.273 0.532,-0.532 0.783,-0.783c-0.138,0.138 -0.273,0.273 -0.404,0.404c-0.131,0.131 -0.258,0.258 -0.379,0.379z"/>
    </g>
   </g>
  </g>
  <g stroke="null" transform="matrix(0.1525884959852739,0,0,0.1525884959852739,0,0) " id="svg_14"/>
  <g stroke="null" transform="matrix(0.1525884959852739,0,0,0.1525884959852739,0,0) " id="svg_15"/>
  <g stroke="null" transform="matrix(0.1525884959852739,0,0,0.1525884959852739,0,0) " id="svg_16"/>
  <g stroke="null" transform="matrix(0.1525884959852739,0,0,0.1525884959852739,0,0) " id="svg_17"/>
  <g stroke="null" transform="matrix(0.1525884959852739,0,0,0.1525884959852739,0,0) " id="svg_18"/>
  <g stroke="null" transform="matrix(0.1525884959852739,0,0,0.1525884959852739,0,0) " id="svg_19"/>
  <g stroke="null" transform="matrix(0.1525884959852739,0,0,0.1525884959852739,0,0) " id="svg_20"/>
  <g stroke="null" transform="matrix(0.1525884959852739,0,0,0.1525884959852739,0,0) " id="svg_21"/>
  <g stroke="null" transform="matrix(0.1525884959852739,0,0,0.1525884959852739,0,0) " id="svg_22"/>
  <g stroke="null" transform="matrix(0.1525884959852739,0,0,0.1525884959852739,0,0) " id="svg_23"/>
  <g stroke="null" transform="matrix(0.1525884959852739,0,0,0.1525884959852739,0,0) " id="svg_24"/>
  <g stroke="null" transform="matrix(0.1525884959852739,0,0,0.1525884959852739,0,0) " id="svg_25"/>
  <g stroke="null" transform="matrix(0.1525884959852739,0,0,0.1525884959852739,0,0) " id="svg_26"/>
  <g stroke="null" transform="matrix(0.1525884959852739,0,0,0.1525884959852739,0,0) " id="svg_27"/>
  <g stroke="null" transform="matrix(0.1525884959852739,0,0,0.1525884959852739,0,0) " id="svg_28"/>
  <text stroke="#000" transform="matrix(1.1407378767186662,0,0,1,-88.56884521049719,0) " xml:space="preserve" text-anchor="start" font-family="Georgia, Times, 'Times New Roman', serif" font-size="76" id="svg_30" y="196.59062" x="135.68049" stroke-width="0" fill="#2c3c5b">Hilo</text>
  <text style="cursor: move;" stroke="#000" xml:space="preserve" text-anchor="start" font-family="Oswald, sans-serif" font-size="19" id="svg_31" y="233.98906" x="39.09375" stroke-width="0" fill="#0ac5a8">Everyone wanna be a Hilo</text>
 </g>
</svg>