<?xml version="1.0" encoding="utf-8"?>
<!-- Svg Vector Icons : http://www.onlinewebfonts.com/icon -->
<!DOCTYPE svg PUBLIC "-//W3C//DTD SVG 1.1//EN" "http://www.w3.org/Graphics/SVG/1.1/DTD/svg11.dtd">
<svg version="1.1" xmlns="http://www.w3.org/2000/svg" xmlns:xlink="http://www.w3.org/1999/xlink" x="0px" y="0px" viewBox="0 0 1000 1000" enable-background="new 0 0 1000 1000" xml:space="preserve">
<metadata> Svg Vector Icons : http://www.onlinewebfonts.com/icon </metadata>
<g><path d="M733.7,449.1c-141.7,0-256.3,114.6-256.3,256.3c0,141.7,114.6,256.9,256.3,256.9c141.7,0,256.3-115.2,256.3-256.9C990,563.7,875.4,449.1,733.7,449.1z M572,549.2h29.3c0,0.7-0.3,2.3,0,2.4c13.9,7,24.6,19.5,41.9,20.4c28.5,1.4,49.9,16.9,71.3,32.9c35.2,26.3,56.3,62,72.5,101.2c4.1,10,9.1,20.2,15,29.3c3.5,5.4,9,10.7,15,13.2c27.7,11.4,51.6,27.7,73.1,51.5c-17.7,3.7-33.5,7-51.5,10.8c3.5,3.8,5.2,6.3,7.8,8.4c15.6,12.7,31.5,25.8,47.3,38.3c1.9,1.5,4.9,2,7.2,3v1.8c-14-7.2-28.3-13.6-41.9-21.6c-10.2-5.9-20.7-12.8-28.7-21c-12.1-12.2-10.3-16.1,6.6-19.8c11.5-2.5,23.5-3.7,35.9-5.4c-0.6-1.7-0.9-3.6-1.8-4.2c-18.2-12.5-35.4-26.9-58.1-31.7c-12.6-2.7-19.3-10.8-24.6-21.6c-13.2-27.1-25.4-54.6-41.3-80.2c-20.7-33.3-51.2-57.1-89.2-71.3c-1.7-0.6-3.7-1.9-5.4-1.8c-22.6,2-38.9-12-57.5-20.4c-2.7-1.2-5.6-3-8.4-3c-3.5,0-8.3,0.8-10.2,3c-1.8,2.1-1.3,6.7,0,9.6c2.2,4.9,6.3,9,9,13.8c7.5,13.2,14.3,26.2,21.6,39.5c7.4,13.6,15.4,27.4,22.2,41.3c1.8,3.6,2,9.5,0.6,13.2c-7.5,19.1-9.6,38-6,58.1c2,11,5.2,21.2,16.2,29.9c6.9-16.7,2.3-35.3,18.6-46.1c12,21.4,24.3,42.9,36.5,64.7c-0.8,0.7-2.2,1.2-3,1.8c-11.1-13.7-21.7-27.2-33.5-41.9c-1.1,6.3-1.6,12.2-3.6,17.4c-2,5-4.8,11.7-9,13.2c-4.1,1.4-11.9-1.4-15.6-4.8c-12.8-12-17-28.5-16.8-44.9c0.2-14.6,2.8-29.4,6-43.7c1.6-7.3,1.2-11.8-3-18.6c-8.3-13.6-14.1-28.7-21-43.1c-3.7-7.8-6.6-16.2-12-22.8C571.1,584.7,558.7,569.8,572,549.2z M636.1,604.2c3.4,1.6,7.8,2.2,9.6,4.8c2.1,3.1,1.7,7.9,2.4,12c-1.2,0.1-2.3,0.5-3.6,0.6c-3.4-4.9-6.8-10.1-10.2-15C634.8,605.8,635.6,605.1,636.1,604.2z"/><path d="M458.2,37.7C202.2,40.7,1.3,112,10.3,197c9,85.1,224.2,152.1,480.3,149.1c256.1-3,456.3-74.2,447.3-159.3S714.3,34.8,458.2,37.7z M10.3,210.8v168.3c-0.4,3.6-0.4,7.7,0,11.4c9,85.1,224.2,151.5,480.3,148.5c0.6,0,1.2,0,1.8,0c38.4-51.4,93.9-91.4,161.7-110.8c82.1-23.4,166.4-12,235.9,25.2c28.4-19.1,45.6-40.5,47.9-62.9h0.6V221.6c-8.5,80.2-202.9,145.6-447.9,148.5c-256,3-470.7-63.4-479.7-148.5c-0.4-3.6-0.4-7.2,0-10.8H10.3z M10.3,407.8v168.9c-0.4,3.6-0.4,7.1,0,10.8c8.3,78.8,193.8,141.4,424.6,147.9c-4.6-59.4,9.8-117.6,38.9-167.7c-248.5-0.1-454.2-65.9-462.9-149.1c-0.4-3.6-0.4-7.2,0-10.8H10.3z M938.5,419.2c-1.7,16.4-11.5,32-27.5,46.7c9.4,6,18.8,12.1,27.5,19.2V419.2z M10.3,605.4v168.3c-0.4,3.6-0.4,7.1,0,10.8c9,85.1,224.2,152.1,480.3,149.1c14.9-0.2,29.8-0.6,44.3-1.2c-40.4-35.3-72.1-81.2-88.6-135.3c-3.3-10.8-5.8-21.5-7.8-32.3c-232.4-5.9-419.2-69.3-427.6-148.5c-0.4-3.6-0.4-7.2,0-10.8H10.3z"/></g>
</svg>